# xmcd
#
# Track frame offsets: 
#        300
#        22952
#        39908
#        52662
#        69266
#        92666
#        110290
#        127769
#        148617
#
# Disc length: 2264 seconds
#
# Revision: 3
# Processed by: cddbd v1.5.2PL0 Copyright (c) Steve Scherf et al.
# Submitted via: ExactAudioCopy v1.0b1
#
DISCID=6308d409
DTITLE=Robert Cray - False Accusations
DYEAR=1985
DGENRE=Contemporary Blues
TTITLE0=Porch Light
TTITLE1=Change Of Heart, Change Of Mind
TTITLE2=She's Gone
TTITLE3=Playin' In The Dirt
TTITLE4=I've Slipped Her Mind
TTITLE5=False Accusations
TTITLE6=The Last Time (I Get Burned Like This)
TTITLE7=Payin' For It Now
TTITLE8=Sonny
EXTD=
EXTT0=
EXTT1=
EXTT2=
EXTT3=
EXTT4=
EXTT5=
EXTT6=
EXTT7=
EXTT8=
PLAYORDER=
